<mxfile host="drawio-plugin" modified="2021-03-03T09:50:27.857Z" agent="5.0 (Macintosh; Intel Mac OS X 10_16_0) AppleWebKit/537.36 (KHTML, like Gecko) Chrome/81.0.4044.113 Safari/537.36" etag="vH_6gAV4ZMh0BrdbA8_T" version="13.7.9" type="embed" pages="2"><diagram id="hRkITe8nOl_1iP-2HeGE" name="master"><mxGraphModel dx="1716" dy="927" grid="1" gridSize="10" guides="1" tooltips="1" connect="1" arrows="1" fold="1" page="1" pageScale="1" pageWidth="827" pageHeight="1169" math="0" shadow="0"><root><mxCell id="0"/><mxCell id="1" parent="0"/><mxCell id="rhMBuf0KJcesDZIIr0BF-36" value="bll" style="shape=umlFrame;whiteSpace=wrap;html=1;comic=0;align=left;fontSize=12;" parent="1" vertex="1"><mxGeometry x="60" y="335" width="860" height="225" as="geometry"/></mxCell><mxCell id="rhMBuf0KJcesDZIIr0BF-35" value="ui" style="shape=umlFrame;whiteSpace=wrap;html=1;comic=0;align=left;fontSize=12;" parent="1" vertex="1"><mxGeometry x="60" y="170" width="860" height="130" as="geometry"/></mxCell><mxCell id="rhMBuf0KJcesDZIIr0BF-1" value="ImageManager" style="swimlane;fontStyle=1;align=center;verticalAlign=top;childLayout=stackLayout;horizontal=1;startSize=26;horizontalStack=0;resizeParent=1;resizeParentMax=0;resizeLast=0;collapsible=1;marginBottom=0;fontSize=12;" parent="1" vertex="1"><mxGeometry x="80" y="462" width="195" height="60" as="geometry"/></mxCell><mxCell id="rhMBuf0KJcesDZIIr0BF-3" value="" style="line;strokeWidth=1;fillColor=none;align=left;verticalAlign=middle;spacingTop=-1;spacingLeft=3;spacingRight=3;rotatable=0;labelPosition=right;points=[];portConstraint=eastwest;fontSize=12;" parent="rhMBuf0KJcesDZIIr0BF-1" vertex="1"><mxGeometry y="26" width="195" height="8" as="geometry"/></mxCell><mxCell id="rhMBuf0KJcesDZIIr0BF-4" value="+ cropImage(imagePath : String)" style="text;strokeColor=none;fillColor=none;align=left;verticalAlign=top;spacingLeft=4;spacingRight=4;overflow=hidden;rotatable=0;points=[[0,0.5],[1,0.5]];portConstraint=eastwest;fontSize=12;" parent="rhMBuf0KJcesDZIIr0BF-1" vertex="1"><mxGeometry y="34" width="195" height="26" as="geometry"/></mxCell><mxCell id="rhMBuf0KJcesDZIIr0BF-5" value="NotificationManager" style="swimlane;fontStyle=1;align=center;verticalAlign=top;childLayout=stackLayout;horizontal=1;startSize=26;horizontalStack=0;resizeParent=1;resizeParentMax=0;resizeLast=0;collapsible=1;marginBottom=0;fontSize=12;" parent="1" vertex="1"><mxGeometry x="600" y="452" width="300" height="86" as="geometry"/></mxCell><mxCell id="rhMBuf0KJcesDZIIr0BF-7" value="" style="line;strokeWidth=1;fillColor=none;align=left;verticalAlign=middle;spacingTop=-1;spacingLeft=3;spacingRight=3;rotatable=0;labelPosition=right;points=[];portConstraint=eastwest;fontSize=12;" parent="rhMBuf0KJcesDZIIr0BF-5" vertex="1"><mxGeometry y="26" width="300" height="8" as="geometry"/></mxCell><mxCell id="rhMBuf0KJcesDZIIr0BF-8" value="+ sendMailNotifications(message : String)" style="text;strokeColor=none;fillColor=none;align=left;verticalAlign=top;spacingLeft=4;spacingRight=4;overflow=hidden;rotatable=0;points=[[0,0.5],[1,0.5]];portConstraint=eastwest;fontSize=12;" parent="rhMBuf0KJcesDZIIr0BF-5" vertex="1"><mxGeometry y="34" width="300" height="26" as="geometry"/></mxCell><mxCell id="rhMBuf0KJcesDZIIr0BF-9" value="+ sendAppNotifications(message : String)" style="text;strokeColor=none;fillColor=none;align=left;verticalAlign=top;spacingLeft=4;spacingRight=4;overflow=hidden;rotatable=0;points=[[0,0.5],[1,0.5]];portConstraint=eastwest;fontSize=12;" parent="rhMBuf0KJcesDZIIr0BF-5" vertex="1"><mxGeometry y="60" width="300" height="26" as="geometry"/></mxCell><mxCell id="rhMBuf0KJcesDZIIr0BF-10" value="BlogPost" style="swimlane;fontStyle=1;align=center;verticalAlign=top;childLayout=stackLayout;horizontal=1;startSize=26;horizontalStack=0;resizeParent=1;resizeParentMax=0;resizeLast=0;collapsible=1;marginBottom=0;fontSize=12;" parent="1" vertex="1"><mxGeometry x="-190" y="210" width="160" height="112" as="geometry"/></mxCell><mxCell id="rhMBuf0KJcesDZIIr0BF-11" value="- date : LocalDateTime" style="text;strokeColor=none;fillColor=none;align=left;verticalAlign=top;spacingLeft=4;spacingRight=4;overflow=hidden;rotatable=0;points=[[0,0.5],[1,0.5]];portConstraint=eastwest;fontSize=12;" parent="rhMBuf0KJcesDZIIr0BF-10" vertex="1"><mxGeometry y="26" width="160" height="26" as="geometry"/></mxCell><mxCell id="rhMBuf0KJcesDZIIr0BF-26" value="- imagePath : String" style="text;strokeColor=none;fillColor=none;align=left;verticalAlign=top;spacingLeft=4;spacingRight=4;overflow=hidden;rotatable=0;points=[[0,0.5],[1,0.5]];portConstraint=eastwest;fontSize=12;" parent="rhMBuf0KJcesDZIIr0BF-10" vertex="1"><mxGeometry y="52" width="160" height="26" as="geometry"/></mxCell><mxCell id="rhMBuf0KJcesDZIIr0BF-19" value="- content : String" style="text;strokeColor=none;fillColor=none;align=left;verticalAlign=top;spacingLeft=4;spacingRight=4;overflow=hidden;rotatable=0;points=[[0,0.5],[1,0.5]];portConstraint=eastwest;fontSize=12;" parent="rhMBuf0KJcesDZIIr0BF-10" vertex="1"><mxGeometry y="78" width="160" height="26" as="geometry"/></mxCell><mxCell id="rhMBuf0KJcesDZIIr0BF-12" value="" style="line;strokeWidth=1;fillColor=none;align=left;verticalAlign=middle;spacingTop=-1;spacingLeft=3;spacingRight=3;rotatable=0;labelPosition=right;points=[];portConstraint=eastwest;fontSize=12;" parent="rhMBuf0KJcesDZIIr0BF-10" vertex="1"><mxGeometry y="104" width="160" height="8" as="geometry"/></mxCell><mxCell id="rhMBuf0KJcesDZIIr0BF-14" value="Comment" style="swimlane;fontStyle=1;align=center;verticalAlign=top;childLayout=stackLayout;horizontal=1;startSize=26;horizontalStack=0;resizeParent=1;resizeParentMax=0;resizeLast=0;collapsible=1;marginBottom=0;fontSize=12;" parent="1" vertex="1"><mxGeometry x="-190" y="400" width="160" height="138" as="geometry"/></mxCell><mxCell id="rhMBuf0KJcesDZIIr0BF-15" value="- author : String" style="text;strokeColor=none;fillColor=none;align=left;verticalAlign=top;spacingLeft=4;spacingRight=4;overflow=hidden;rotatable=0;points=[[0,0.5],[1,0.5]];portConstraint=eastwest;fontSize=12;" parent="rhMBuf0KJcesDZIIr0BF-14" vertex="1"><mxGeometry y="26" width="160" height="26" as="geometry"/></mxCell><mxCell id="rhMBuf0KJcesDZIIr0BF-20" value="- date : LocalDateTime" style="text;strokeColor=none;fillColor=none;align=left;verticalAlign=top;spacingLeft=4;spacingRight=4;overflow=hidden;rotatable=0;points=[[0,0.5],[1,0.5]];portConstraint=eastwest;fontSize=12;" parent="rhMBuf0KJcesDZIIr0BF-14" vertex="1"><mxGeometry y="52" width="160" height="26" as="geometry"/></mxCell><mxCell id="rhMBuf0KJcesDZIIr0BF-18" value="- content : String" style="text;strokeColor=none;fillColor=none;align=left;verticalAlign=top;spacingLeft=4;spacingRight=4;overflow=hidden;rotatable=0;points=[[0,0.5],[1,0.5]];portConstraint=eastwest;fontSize=12;" parent="rhMBuf0KJcesDZIIr0BF-14" vertex="1"><mxGeometry y="78" width="160" height="26" as="geometry"/></mxCell><mxCell id="rhMBuf0KJcesDZIIr0BF-16" value="" style="line;strokeWidth=1;fillColor=none;align=left;verticalAlign=middle;spacingTop=-1;spacingLeft=3;spacingRight=3;rotatable=0;labelPosition=right;points=[];portConstraint=eastwest;fontSize=12;" parent="rhMBuf0KJcesDZIIr0BF-14" vertex="1"><mxGeometry y="104" width="160" height="8" as="geometry"/></mxCell><mxCell id="rhMBuf0KJcesDZIIr0BF-17" value="+ method(type): type" style="text;strokeColor=none;fillColor=none;align=left;verticalAlign=top;spacingLeft=4;spacingRight=4;overflow=hidden;rotatable=0;points=[[0,0.5],[1,0.5]];portConstraint=eastwest;fontSize=12;" parent="rhMBuf0KJcesDZIIr0BF-14" vertex="1"><mxGeometry y="112" width="160" height="26" as="geometry"/></mxCell><mxCell id="rhMBuf0KJcesDZIIr0BF-21" value="InstagramManager" style="swimlane;fontStyle=1;align=center;verticalAlign=top;childLayout=stackLayout;horizontal=1;startSize=26;horizontalStack=0;resizeParent=1;resizeParentMax=0;resizeLast=0;collapsible=1;marginBottom=0;fontSize=12;" parent="1" vertex="1"><mxGeometry x="310" y="462" width="263.75" height="60" as="geometry"/></mxCell><mxCell id="rhMBuf0KJcesDZIIr0BF-23" value="" style="line;strokeWidth=1;fillColor=none;align=left;verticalAlign=middle;spacingTop=-1;spacingLeft=3;spacingRight=3;rotatable=0;labelPosition=right;points=[];portConstraint=eastwest;fontSize=12;" parent="rhMBuf0KJcesDZIIr0BF-21" vertex="1"><mxGeometry y="26" width="263.75" height="8" as="geometry"/></mxCell><mxCell id="rhMBuf0KJcesDZIIr0BF-24" value="+ upload(message : String, imagePath : String)" style="text;strokeColor=none;fillColor=none;align=left;verticalAlign=top;spacingLeft=4;spacingRight=4;overflow=hidden;rotatable=0;points=[[0,0.5],[1,0.5]];portConstraint=eastwest;fontSize=12;" parent="rhMBuf0KJcesDZIIr0BF-21" vertex="1"><mxGeometry y="34" width="263.75" height="26" as="geometry"/></mxCell><mxCell id="rhMBuf0KJcesDZIIr0BF-27" value="BlogAdminWindow" style="swimlane;fontStyle=1;align=center;verticalAlign=top;childLayout=stackLayout;horizontal=1;startSize=26;horizontalStack=0;resizeParent=1;resizeParentMax=0;resizeLast=0;collapsible=1;marginBottom=0;fontSize=12;" parent="1" vertex="1"><mxGeometry x="290" y="210" width="190" height="60" as="geometry"/></mxCell><mxCell id="rhMBuf0KJcesDZIIr0BF-29" value="" style="line;strokeWidth=1;fillColor=none;align=left;verticalAlign=middle;spacingTop=-1;spacingLeft=3;spacingRight=3;rotatable=0;labelPosition=right;points=[];portConstraint=eastwest;fontSize=12;" parent="rhMBuf0KJcesDZIIr0BF-27" vertex="1"><mxGeometry y="26" width="190" height="8" as="geometry"/></mxCell><mxCell id="rhMBuf0KJcesDZIIr0BF-30" value="+ createNewPost(post : BlogPost)" style="text;strokeColor=none;fillColor=none;align=left;verticalAlign=top;spacingLeft=4;spacingRight=4;overflow=hidden;rotatable=0;points=[[0,0.5],[1,0.5]];portConstraint=eastwest;fontSize=12;" parent="rhMBuf0KJcesDZIIr0BF-27" vertex="1"><mxGeometry y="34" width="190" height="26" as="geometry"/></mxCell><mxCell id="rhMBuf0KJcesDZIIr0BF-31" value="BlogPostWindow" style="swimlane;fontStyle=1;align=center;verticalAlign=top;childLayout=stackLayout;horizontal=1;startSize=26;horizontalStack=0;resizeParent=1;resizeParentMax=0;resizeLast=0;collapsible=1;marginBottom=0;fontSize=12;" parent="1" vertex="1"><mxGeometry x="560" y="210" width="220" height="60" as="geometry"/></mxCell><mxCell id="rhMBuf0KJcesDZIIr0BF-32" value="" style="line;strokeWidth=1;fillColor=none;align=left;verticalAlign=middle;spacingTop=-1;spacingLeft=3;spacingRight=3;rotatable=0;labelPosition=right;points=[];portConstraint=eastwest;fontSize=12;" parent="rhMBuf0KJcesDZIIr0BF-31" vertex="1"><mxGeometry y="26" width="220" height="8" as="geometry"/></mxCell><mxCell id="rhMBuf0KJcesDZIIr0BF-33" value="+ addComment(comment : Comment)" style="text;strokeColor=none;fillColor=none;align=left;verticalAlign=top;spacingLeft=4;spacingRight=4;overflow=hidden;rotatable=0;points=[[0,0.5],[1,0.5]];portConstraint=eastwest;fontSize=12;" parent="rhMBuf0KJcesDZIIr0BF-31" vertex="1"><mxGeometry y="34" width="220" height="26" as="geometry"/></mxCell><mxCell id="rhMBuf0KJcesDZIIr0BF-40" value="" style="endArrow=open;endSize=12;html=1;fontSize=12;" parent="1" source="rhMBuf0KJcesDZIIr0BF-27" target="rhMBuf0KJcesDZIIr0BF-1" edge="1"><mxGeometry width="160" relative="1" as="geometry"><mxPoint x="500" y="590" as="sourcePoint"/><mxPoint x="660" y="590" as="targetPoint"/></mxGeometry></mxCell><mxCell id="rhMBuf0KJcesDZIIr0BF-42" value="" style="endArrow=open;endSize=12;html=1;fontSize=12;" parent="1" source="rhMBuf0KJcesDZIIr0BF-27" target="rhMBuf0KJcesDZIIr0BF-21" edge="1"><mxGeometry width="160" relative="1" as="geometry"><mxPoint x="347.1153846153845" y="280" as="sourcePoint"/><mxPoint x="187.5" y="380" as="targetPoint"/></mxGeometry></mxCell><mxCell id="rhMBuf0KJcesDZIIr0BF-43" value="" style="endArrow=open;endSize=12;html=1;fontSize=12;" parent="1" source="rhMBuf0KJcesDZIIr0BF-27" target="rhMBuf0KJcesDZIIr0BF-5" edge="1"><mxGeometry width="160" relative="1" as="geometry"><mxPoint x="357.1153846153845" y="290" as="sourcePoint"/><mxPoint x="197.5" y="390" as="targetPoint"/></mxGeometry></mxCell><mxCell id="rhMBuf0KJcesDZIIr0BF-44" value="" style="endArrow=open;endSize=12;html=1;fontSize=12;" parent="1" source="rhMBuf0KJcesDZIIr0BF-31" target="rhMBuf0KJcesDZIIr0BF-1" edge="1"><mxGeometry width="160" relative="1" as="geometry"><mxPoint x="367.1153846153845" y="300" as="sourcePoint"/><mxPoint x="207.5" y="400" as="targetPoint"/></mxGeometry></mxCell><mxCell id="rhMBuf0KJcesDZIIr0BF-45" value="" style="endArrow=open;endSize=12;html=1;fontSize=12;" parent="1" source="rhMBuf0KJcesDZIIr0BF-31" target="rhMBuf0KJcesDZIIr0BF-21" edge="1"><mxGeometry width="160" relative="1" as="geometry"><mxPoint x="377.1153846153845" y="310" as="sourcePoint"/><mxPoint x="217.5" y="410" as="targetPoint"/></mxGeometry></mxCell><mxCell id="rhMBuf0KJcesDZIIr0BF-46" value="" style="endArrow=open;endSize=12;html=1;fontSize=12;" parent="1" source="rhMBuf0KJcesDZIIr0BF-31" target="rhMBuf0KJcesDZIIr0BF-5" edge="1"><mxGeometry width="160" relative="1" as="geometry"><mxPoint x="387.1153846153845" y="320" as="sourcePoint"/><mxPoint x="227.5" y="420" as="targetPoint"/></mxGeometry></mxCell><mxCell id="rhMBuf0KJcesDZIIr0BF-47" value="1" style="endArrow=open;html=1;endSize=12;startArrow=diamondThin;startSize=14;startFill=1;edgeStyle=orthogonalEdgeStyle;align=left;verticalAlign=bottom;fontSize=12;" parent="1" source="rhMBuf0KJcesDZIIr0BF-10" target="rhMBuf0KJcesDZIIr0BF-14" edge="1"><mxGeometry x="-0.5385" y="10" relative="1" as="geometry"><mxPoint x="40" y="510" as="sourcePoint"/><mxPoint x="200" y="510" as="targetPoint"/><mxPoint as="offset"/></mxGeometry></mxCell><mxCell id="rhMBuf0KJcesDZIIr0BF-48" value="0..*" style="edgeLabel;html=1;align=center;verticalAlign=middle;resizable=0;points=[];fontSize=12;" parent="rhMBuf0KJcesDZIIr0BF-47" vertex="1" connectable="0"><mxGeometry x="0.6667" y="3" relative="1" as="geometry"><mxPoint x="17" as="offset"/></mxGeometry></mxCell><mxCell id="rhMBuf0KJcesDZIIr0BF-49" value="model" style="shape=umlFrame;whiteSpace=wrap;html=1;comic=0;align=left;fontSize=12;" parent="1" vertex="1"><mxGeometry x="-220" y="170" width="230" height="390" as="geometry"/></mxCell><mxCell id="4" value="Discuss the cohesion and the SOLID principle Single Responsibility Principle." style="shape=note;whiteSpace=wrap;html=1;backgroundOutline=1;darkOpacity=0.05;" vertex="1" parent="1"><mxGeometry x="330" y="610" width="270" height="100" as="geometry"/></mxCell><mxCell id="yQPDzUduk5WA3xtXlLEj-4" value="How our blog works:&lt;br&gt;Everytime we create a new post we'll share it on Instagram and send notifications.&lt;br&gt;Everytime someone add a comment to a post we'll share it on Instagram and send notifications." style="shape=note;whiteSpace=wrap;html=1;backgroundOutline=1;darkOpacity=0.05;" vertex="1" parent="1"><mxGeometry x="240" y="20" width="530" height="100" as="geometry"/></mxCell></root></mxGraphModel></diagram><diagram id="OXGN5adEPrduyCOY9_tg" name="solution"><mxGraphModel dx="1716" dy="927" grid="1" gridSize="10" guides="1" tooltips="1" connect="1" arrows="1" fold="1" page="1" pageScale="1" pageWidth="827" pageHeight="1169" math="0" shadow="0"><root><mxCell id="7_dVNCD6t8nBJmEDR81p-0"/><mxCell id="7_dVNCD6t8nBJmEDR81p-1" parent="7_dVNCD6t8nBJmEDR81p-0"/><mxCell id="lqntT9Zoc7qK1gEb64Om-0" value="bll" style="shape=umlFrame;whiteSpace=wrap;html=1;comic=0;align=left;" parent="7_dVNCD6t8nBJmEDR81p-1" vertex="1"><mxGeometry x="60" y="335" width="860" height="225" as="geometry"/></mxCell><mxCell id="lqntT9Zoc7qK1gEb64Om-1" value="ui" style="shape=umlFrame;whiteSpace=wrap;html=1;comic=0;align=left;" parent="7_dVNCD6t8nBJmEDR81p-1" vertex="1"><mxGeometry x="60" y="170" width="860" height="130" as="geometry"/></mxCell><mxCell id="lqntT9Zoc7qK1gEb64Om-2" value="ImageManager" style="swimlane;fontStyle=1;align=center;verticalAlign=top;childLayout=stackLayout;horizontal=1;startSize=26;horizontalStack=0;resizeParent=1;resizeParentMax=0;resizeLast=0;collapsible=1;marginBottom=0;" parent="7_dVNCD6t8nBJmEDR81p-1" vertex="1"><mxGeometry x="80" y="462" width="195" height="60" as="geometry"/></mxCell><mxCell id="lqntT9Zoc7qK1gEb64Om-3" value="" style="line;strokeWidth=1;fillColor=none;align=left;verticalAlign=middle;spacingTop=-1;spacingLeft=3;spacingRight=3;rotatable=0;labelPosition=right;points=[];portConstraint=eastwest;" parent="lqntT9Zoc7qK1gEb64Om-2" vertex="1"><mxGeometry y="26" width="195" height="8" as="geometry"/></mxCell><mxCell id="lqntT9Zoc7qK1gEb64Om-4" value="+ cropImage(imagePath : String)" style="text;strokeColor=none;fillColor=none;align=left;verticalAlign=top;spacingLeft=4;spacingRight=4;overflow=hidden;rotatable=0;points=[[0,0.5],[1,0.5]];portConstraint=eastwest;" parent="lqntT9Zoc7qK1gEb64Om-2" vertex="1"><mxGeometry y="34" width="195" height="26" as="geometry"/></mxCell><mxCell id="lqntT9Zoc7qK1gEb64Om-5" value="NotificationManager" style="swimlane;fontStyle=1;align=center;verticalAlign=top;childLayout=stackLayout;horizontal=1;startSize=26;horizontalStack=0;resizeParent=1;resizeParentMax=0;resizeLast=0;collapsible=1;marginBottom=0;" parent="7_dVNCD6t8nBJmEDR81p-1" vertex="1"><mxGeometry x="600" y="452" width="300" height="86" as="geometry"/></mxCell><mxCell id="lqntT9Zoc7qK1gEb64Om-6" value="" style="line;strokeWidth=1;fillColor=none;align=left;verticalAlign=middle;spacingTop=-1;spacingLeft=3;spacingRight=3;rotatable=0;labelPosition=right;points=[];portConstraint=eastwest;" parent="lqntT9Zoc7qK1gEb64Om-5" vertex="1"><mxGeometry y="26" width="300" height="8" as="geometry"/></mxCell><mxCell id="lqntT9Zoc7qK1gEb64Om-7" value="+ sendMailNotifications(message : String)" style="text;strokeColor=none;fillColor=none;align=left;verticalAlign=top;spacingLeft=4;spacingRight=4;overflow=hidden;rotatable=0;points=[[0,0.5],[1,0.5]];portConstraint=eastwest;" parent="lqntT9Zoc7qK1gEb64Om-5" vertex="1"><mxGeometry y="34" width="300" height="26" as="geometry"/></mxCell><mxCell id="lqntT9Zoc7qK1gEb64Om-8" value="+ sendAppNotifications(message : String)" style="text;strokeColor=none;fillColor=none;align=left;verticalAlign=top;spacingLeft=4;spacingRight=4;overflow=hidden;rotatable=0;points=[[0,0.5],[1,0.5]];portConstraint=eastwest;" parent="lqntT9Zoc7qK1gEb64Om-5" vertex="1"><mxGeometry y="60" width="300" height="26" as="geometry"/></mxCell><mxCell id="lqntT9Zoc7qK1gEb64Om-9" value="BlogPost" style="swimlane;fontStyle=1;align=center;verticalAlign=top;childLayout=stackLayout;horizontal=1;startSize=26;horizontalStack=0;resizeParent=1;resizeParentMax=0;resizeLast=0;collapsible=1;marginBottom=0;" parent="7_dVNCD6t8nBJmEDR81p-1" vertex="1"><mxGeometry x="-190" y="210" width="160" height="112" as="geometry"/></mxCell><mxCell id="lqntT9Zoc7qK1gEb64Om-10" value="- date : LocalDateTime" style="text;strokeColor=none;fillColor=none;align=left;verticalAlign=top;spacingLeft=4;spacingRight=4;overflow=hidden;rotatable=0;points=[[0,0.5],[1,0.5]];portConstraint=eastwest;" parent="lqntT9Zoc7qK1gEb64Om-9" vertex="1"><mxGeometry y="26" width="160" height="26" as="geometry"/></mxCell><mxCell id="lqntT9Zoc7qK1gEb64Om-11" value="- imagePath : String" style="text;strokeColor=none;fillColor=none;align=left;verticalAlign=top;spacingLeft=4;spacingRight=4;overflow=hidden;rotatable=0;points=[[0,0.5],[1,0.5]];portConstraint=eastwest;" parent="lqntT9Zoc7qK1gEb64Om-9" vertex="1"><mxGeometry y="52" width="160" height="26" as="geometry"/></mxCell><mxCell id="lqntT9Zoc7qK1gEb64Om-12" value="- content : String" style="text;strokeColor=none;fillColor=none;align=left;verticalAlign=top;spacingLeft=4;spacingRight=4;overflow=hidden;rotatable=0;points=[[0,0.5],[1,0.5]];portConstraint=eastwest;" parent="lqntT9Zoc7qK1gEb64Om-9" vertex="1"><mxGeometry y="78" width="160" height="26" as="geometry"/></mxCell><mxCell id="lqntT9Zoc7qK1gEb64Om-13" value="" style="line;strokeWidth=1;fillColor=none;align=left;verticalAlign=middle;spacingTop=-1;spacingLeft=3;spacingRight=3;rotatable=0;labelPosition=right;points=[];portConstraint=eastwest;" parent="lqntT9Zoc7qK1gEb64Om-9" vertex="1"><mxGeometry y="104" width="160" height="8" as="geometry"/></mxCell><mxCell id="lqntT9Zoc7qK1gEb64Om-14" value="Comment" style="swimlane;fontStyle=1;align=center;verticalAlign=top;childLayout=stackLayout;horizontal=1;startSize=26;horizontalStack=0;resizeParent=1;resizeParentMax=0;resizeLast=0;collapsible=1;marginBottom=0;" parent="7_dVNCD6t8nBJmEDR81p-1" vertex="1"><mxGeometry x="-190" y="400" width="160" height="138" as="geometry"/></mxCell><mxCell id="lqntT9Zoc7qK1gEb64Om-15" value="- author : String" style="text;strokeColor=none;fillColor=none;align=left;verticalAlign=top;spacingLeft=4;spacingRight=4;overflow=hidden;rotatable=0;points=[[0,0.5],[1,0.5]];portConstraint=eastwest;" parent="lqntT9Zoc7qK1gEb64Om-14" vertex="1"><mxGeometry y="26" width="160" height="26" as="geometry"/></mxCell><mxCell id="lqntT9Zoc7qK1gEb64Om-16" value="- date : LocalDateTime" style="text;strokeColor=none;fillColor=none;align=left;verticalAlign=top;spacingLeft=4;spacingRight=4;overflow=hidden;rotatable=0;points=[[0,0.5],[1,0.5]];portConstraint=eastwest;" parent="lqntT9Zoc7qK1gEb64Om-14" vertex="1"><mxGeometry y="52" width="160" height="26" as="geometry"/></mxCell><mxCell id="lqntT9Zoc7qK1gEb64Om-17" value="- content : String" style="text;strokeColor=none;fillColor=none;align=left;verticalAlign=top;spacingLeft=4;spacingRight=4;overflow=hidden;rotatable=0;points=[[0,0.5],[1,0.5]];portConstraint=eastwest;" parent="lqntT9Zoc7qK1gEb64Om-14" vertex="1"><mxGeometry y="78" width="160" height="26" as="geometry"/></mxCell><mxCell id="lqntT9Zoc7qK1gEb64Om-18" value="" style="line;strokeWidth=1;fillColor=none;align=left;verticalAlign=middle;spacingTop=-1;spacingLeft=3;spacingRight=3;rotatable=0;labelPosition=right;points=[];portConstraint=eastwest;" parent="lqntT9Zoc7qK1gEb64Om-14" vertex="1"><mxGeometry y="104" width="160" height="8" as="geometry"/></mxCell><mxCell id="lqntT9Zoc7qK1gEb64Om-19" value="+ method(type): type" style="text;strokeColor=none;fillColor=none;align=left;verticalAlign=top;spacingLeft=4;spacingRight=4;overflow=hidden;rotatable=0;points=[[0,0.5],[1,0.5]];portConstraint=eastwest;" parent="lqntT9Zoc7qK1gEb64Om-14" vertex="1"><mxGeometry y="112" width="160" height="26" as="geometry"/></mxCell><mxCell id="lqntT9Zoc7qK1gEb64Om-20" value="InstagramManager" style="swimlane;fontStyle=1;align=center;verticalAlign=top;childLayout=stackLayout;horizontal=1;startSize=26;horizontalStack=0;resizeParent=1;resizeParentMax=0;resizeLast=0;collapsible=1;marginBottom=0;" parent="7_dVNCD6t8nBJmEDR81p-1" vertex="1"><mxGeometry x="310" y="462" width="263.75" height="60" as="geometry"/></mxCell><mxCell id="lqntT9Zoc7qK1gEb64Om-21" value="" style="line;strokeWidth=1;fillColor=none;align=left;verticalAlign=middle;spacingTop=-1;spacingLeft=3;spacingRight=3;rotatable=0;labelPosition=right;points=[];portConstraint=eastwest;" parent="lqntT9Zoc7qK1gEb64Om-20" vertex="1"><mxGeometry y="26" width="263.75" height="8" as="geometry"/></mxCell><mxCell id="lqntT9Zoc7qK1gEb64Om-22" value="+ upload(message : String, imagePath : String)" style="text;strokeColor=none;fillColor=none;align=left;verticalAlign=top;spacingLeft=4;spacingRight=4;overflow=hidden;rotatable=0;points=[[0,0.5],[1,0.5]];portConstraint=eastwest;" parent="lqntT9Zoc7qK1gEb64Om-20" vertex="1"><mxGeometry y="34" width="263.75" height="26" as="geometry"/></mxCell><mxCell id="lqntT9Zoc7qK1gEb64Om-23" value="BlogAdminWindow" style="swimlane;fontStyle=1;align=center;verticalAlign=top;childLayout=stackLayout;horizontal=1;startSize=26;horizontalStack=0;resizeParent=1;resizeParentMax=0;resizeLast=0;collapsible=1;marginBottom=0;" parent="7_dVNCD6t8nBJmEDR81p-1" vertex="1"><mxGeometry x="290" y="210" width="190" height="60" as="geometry"/></mxCell><mxCell id="lqntT9Zoc7qK1gEb64Om-24" value="" style="line;strokeWidth=1;fillColor=none;align=left;verticalAlign=middle;spacingTop=-1;spacingLeft=3;spacingRight=3;rotatable=0;labelPosition=right;points=[];portConstraint=eastwest;" parent="lqntT9Zoc7qK1gEb64Om-23" vertex="1"><mxGeometry y="26" width="190" height="8" as="geometry"/></mxCell><mxCell id="lqntT9Zoc7qK1gEb64Om-25" value="+ createNewPost(post : BlogPost)" style="text;strokeColor=none;fillColor=none;align=left;verticalAlign=top;spacingLeft=4;spacingRight=4;overflow=hidden;rotatable=0;points=[[0,0.5],[1,0.5]];portConstraint=eastwest;" parent="lqntT9Zoc7qK1gEb64Om-23" vertex="1"><mxGeometry y="34" width="190" height="26" as="geometry"/></mxCell><mxCell id="lqntT9Zoc7qK1gEb64Om-26" value="BlogPostWindow" style="swimlane;fontStyle=1;align=center;verticalAlign=top;childLayout=stackLayout;horizontal=1;startSize=26;horizontalStack=0;resizeParent=1;resizeParentMax=0;resizeLast=0;collapsible=1;marginBottom=0;" parent="7_dVNCD6t8nBJmEDR81p-1" vertex="1"><mxGeometry x="560" y="210" width="220" height="60" as="geometry"/></mxCell><mxCell id="lqntT9Zoc7qK1gEb64Om-27" value="" style="line;strokeWidth=1;fillColor=none;align=left;verticalAlign=middle;spacingTop=-1;spacingLeft=3;spacingRight=3;rotatable=0;labelPosition=right;points=[];portConstraint=eastwest;" parent="lqntT9Zoc7qK1gEb64Om-26" vertex="1"><mxGeometry y="26" width="220" height="8" as="geometry"/></mxCell><mxCell id="lqntT9Zoc7qK1gEb64Om-28" value="+ addComment(comment : Comment)" style="text;strokeColor=none;fillColor=none;align=left;verticalAlign=top;spacingLeft=4;spacingRight=4;overflow=hidden;rotatable=0;points=[[0,0.5],[1,0.5]];portConstraint=eastwest;" parent="lqntT9Zoc7qK1gEb64Om-26" vertex="1"><mxGeometry y="34" width="220" height="26" as="geometry"/></mxCell><mxCell id="lqntT9Zoc7qK1gEb64Om-29" value="" style="endArrow=open;endSize=12;html=1;" parent="7_dVNCD6t8nBJmEDR81p-1" source="lqntT9Zoc7qK1gEb64Om-38" target="lqntT9Zoc7qK1gEb64Om-2" edge="1"><mxGeometry width="160" relative="1" as="geometry"><mxPoint x="500" y="590" as="sourcePoint"/><mxPoint x="660" y="590" as="targetPoint"/></mxGeometry></mxCell><mxCell id="lqntT9Zoc7qK1gEb64Om-30" value="" style="endArrow=open;endSize=12;html=1;exitX=0.569;exitY=0.367;exitDx=0;exitDy=0;exitPerimeter=0;" parent="7_dVNCD6t8nBJmEDR81p-1" source="lqntT9Zoc7qK1gEb64Om-38" target="lqntT9Zoc7qK1gEb64Om-20" edge="1"><mxGeometry width="160" relative="1" as="geometry"><mxPoint x="347.1153846153845" y="280" as="sourcePoint"/><mxPoint x="187.5" y="380" as="targetPoint"/></mxGeometry></mxCell><mxCell id="lqntT9Zoc7qK1gEb64Om-31" value="" style="endArrow=open;endSize=12;html=1;" parent="7_dVNCD6t8nBJmEDR81p-1" source="lqntT9Zoc7qK1gEb64Om-38" target="lqntT9Zoc7qK1gEb64Om-5" edge="1"><mxGeometry width="160" relative="1" as="geometry"><mxPoint x="357.1153846153845" y="290" as="sourcePoint"/><mxPoint x="197.5" y="390" as="targetPoint"/></mxGeometry></mxCell><mxCell id="lqntT9Zoc7qK1gEb64Om-32" value="" style="endArrow=open;endSize=12;html=1;" parent="7_dVNCD6t8nBJmEDR81p-1" source="lqntT9Zoc7qK1gEb64Om-26" target="lqntT9Zoc7qK1gEb64Om-38" edge="1"><mxGeometry width="160" relative="1" as="geometry"><mxPoint x="367.1153846153845" y="300" as="sourcePoint"/><mxPoint x="207.5" y="400" as="targetPoint"/></mxGeometry></mxCell><mxCell id="lqntT9Zoc7qK1gEb64Om-33" value="" style="endArrow=open;endSize=12;html=1;" parent="7_dVNCD6t8nBJmEDR81p-1" source="lqntT9Zoc7qK1gEb64Om-23" target="lqntT9Zoc7qK1gEb64Om-38" edge="1"><mxGeometry width="160" relative="1" as="geometry"><mxPoint x="377.1153846153845" y="310" as="sourcePoint"/><mxPoint x="217.5" y="410" as="targetPoint"/></mxGeometry></mxCell><mxCell id="lqntT9Zoc7qK1gEb64Om-35" value="1" style="endArrow=open;html=1;endSize=12;startArrow=diamondThin;startSize=14;startFill=1;edgeStyle=orthogonalEdgeStyle;align=left;verticalAlign=bottom;" parent="7_dVNCD6t8nBJmEDR81p-1" source="lqntT9Zoc7qK1gEb64Om-9" target="lqntT9Zoc7qK1gEb64Om-14" edge="1"><mxGeometry x="-0.5385" y="10" relative="1" as="geometry"><mxPoint x="40" y="510" as="sourcePoint"/><mxPoint x="200" y="510" as="targetPoint"/><mxPoint as="offset"/></mxGeometry></mxCell><mxCell id="lqntT9Zoc7qK1gEb64Om-36" value="0..*" style="edgeLabel;html=1;align=center;verticalAlign=middle;resizable=0;points=[];" parent="lqntT9Zoc7qK1gEb64Om-35" vertex="1" connectable="0"><mxGeometry x="0.6667" y="3" relative="1" as="geometry"><mxPoint x="17" as="offset"/></mxGeometry></mxCell><mxCell id="lqntT9Zoc7qK1gEb64Om-37" value="model" style="shape=umlFrame;whiteSpace=wrap;html=1;comic=0;align=left;" parent="7_dVNCD6t8nBJmEDR81p-1" vertex="1"><mxGeometry x="-220" y="170" width="230" height="390" as="geometry"/></mxCell><mxCell id="lqntT9Zoc7qK1gEb64Om-38" value="BlogShareFacade" style="swimlane;fontStyle=1;align=center;verticalAlign=top;childLayout=stackLayout;horizontal=1;startSize=26;horizontalStack=0;resizeParent=1;resizeParentMax=0;resizeLast=0;collapsible=1;marginBottom=0;comic=0;fillColor=#d5e8d4;strokeColor=#82b366;fontColor=#000000;" parent="7_dVNCD6t8nBJmEDR81p-1" vertex="1"><mxGeometry x="330" y="350" width="260" height="60" as="geometry"/></mxCell><mxCell id="lqntT9Zoc7qK1gEb64Om-40" value="" style="line;strokeWidth=1;fillColor=#d5e8d4;align=left;verticalAlign=middle;spacingTop=-1;spacingLeft=3;spacingRight=3;rotatable=0;labelPosition=right;points=[];portConstraint=eastwest;strokeColor=#82b366;" parent="lqntT9Zoc7qK1gEb64Om-38" vertex="1"><mxGeometry y="26" width="260" height="8" as="geometry"/></mxCell><mxCell id="lqntT9Zoc7qK1gEb64Om-41" value="+ share(message : String, imagePath : String)" style="text;strokeColor=#82b366;fillColor=#d5e8d4;align=left;verticalAlign=top;spacingLeft=4;spacingRight=4;overflow=hidden;rotatable=0;points=[[0,0.5],[1,0.5]];portConstraint=eastwest;fontColor=#1C1C1C;" parent="lqntT9Zoc7qK1gEb64Om-38" vertex="1"><mxGeometry y="34" width="260" height="26" as="geometry"/></mxCell></root></mxGraphModel></diagram></mxfile>